<svg xmlns="http://www.w3.org/2000/svg" width="10" height="20" viewBox="0 0 10 20">
  <path id="facebook" d="M9.909.143V3.316h-1.8A1.491,1.491,0,0,0,7.9,3.3a1.635,1.635,0,0,0-1.122.448l0,0A2.038,2.038,0,0,0,6.429,4.9c0,.052,0,.1.006.154V7.318H9.8l-.445,3.558H6.439v9.12H2.927v-9.12H0V7.318H2.927V4.7c-.006-.085-.009-.185-.009-.285a4.754,4.754,0,0,1,1.2-3.183l0,0A4.2,4.2,0,0,1,7.089,0C7.16,0,7.232,0,7.3,0h-.01l.314,0A18.317,18.317,0,0,1,10,.155L9.908.145Z" transform="translate(-0.001 0.005)" fill="#19191d"/>
</svg>
