<svg xmlns="http://www.w3.org/2000/svg" width="98" height="80" viewBox="0 0 98 80">
  <g id="reshot-icon-web-secure-SE7QL3KRM8" transform="translate(-4.25 -15.25)">
    <path id="Path_60" data-name="Path 60" d="M94.254,15.25H12.246a8.007,8.007,0,0,0-8,8V86.429a8.828,8.828,0,0,0,8.816,8.821H93.434a8.828,8.828,0,0,0,8.816-8.821V23.25a8.007,8.007,0,0,0-8-8Zm5.126,8v9.586H44.137l6.956-14.714H94.254A5.133,5.133,0,0,1,99.38,23.25ZM12.246,18.122H47.919L40.962,32.836H7.12V23.25a5.133,5.133,0,0,1,5.126-5.128ZM93.434,92.378H13.066A5.954,5.954,0,0,1,7.12,86.429V35.708H99.38V86.429a5.954,5.954,0,0,1-5.946,5.949Z" fill="#f7a765"/>
    <path id="Path_61" data-name="Path 61" d="M20.538,31.4a4.718,4.718,0,1,0-4.718-4.718A4.718,4.718,0,0,0,20.538,31.4Zm0-6.564a1.846,1.846,0,1,1-1.846,1.846,1.846,1.846,0,0,1,1.846-1.846Z" transform="translate(-2.077 -1.205)" fill="#f7a765"/>
    <path id="Path_62" data-name="Path 62" d="M36.594,31.4a4.718,4.718,0,1,0-4.718-4.718A4.718,4.718,0,0,0,36.594,31.4Zm0-6.564a1.846,1.846,0,1,1-1.846,1.846A1.846,1.846,0,0,1,36.594,24.838Z" transform="translate(-4.972 -1.205)" fill="#f7a765"/>
    <path id="Path_63" data-name="Path 63" d="M67.208,28.838h36.714a1.436,1.436,0,0,0,0-2.872H67.208a1.436,1.436,0,0,0,0,2.872Z" transform="translate(-11.094 -1.923)" fill="#f7a765"/>
    <path id="Path_64" data-name="Path 64" d="M50.671,59.407a1.435,1.435,0,0,0-1.32-1.433,24.075,24.075,0,0,1-14.861-6.528,1.483,1.483,0,0,0-2.125,0A23.883,23.883,0,0,1,17.5,57.974a1.434,1.434,0,0,0-1.32,1.438s.022,4.752,0,7.41c-.019,2.252.3,22.037,17.149,23.126h.185c16.849-1.09,17.17-20.874,17.149-23.126C50.649,64.161,50.671,59.409,50.671,59.407ZM33.428,87.071c-14.124-.985-14.389-18.26-14.372-20.23.015-1.794.01-4.539,0-6.147a27.18,27.18,0,0,0,14.372-6.3,27.174,27.174,0,0,0,14.367,6.3c0,1.608-.011,4.353,0,6.147C47.815,68.811,47.551,86.082,33.428,87.071Z" transform="translate(-2.142 -6.416)" fill="#f7a765"/>
    <path id="Path_65" data-name="Path 65" d="M103.113,54.966H72.754a1.436,1.436,0,0,0,0,2.872h30.359a1.436,1.436,0,1,0,0-2.872Z" transform="translate(-12.089 -7.129)" fill="#f7a765"/>
    <path id="Path_66" data-name="Path 66" d="M103.113,66.466H72.754a1.436,1.436,0,0,0,0,2.872h30.359a1.436,1.436,0,1,0,0-2.872Z" transform="translate(-12.089 -9.193)" fill="#f7a765"/>
    <path id="Path_67" data-name="Path 67" d="M103.113,77.966H72.754a1.436,1.436,0,0,0,0,2.872h30.359a1.436,1.436,0,1,0,0-2.872Z" transform="translate(-12.089 -11.257)" fill="#f7a765"/>
    <path id="Path_68" data-name="Path 68" d="M103.113,89.466H72.754a1.436,1.436,0,0,0,0,2.872h30.359a1.436,1.436,0,1,0,0-2.872Z" transform="translate(-12.089 -13.321)" fill="#f7a765"/>
    <path id="Path_69" data-name="Path 69" d="M43.045,66.282a1.433,1.433,0,0,0-1.981.447l-6.272,9.928L29.4,72.063a1.436,1.436,0,1,0-1.862,2.186l6.651,5.667a1.435,1.435,0,0,0,.931.343,1.365,1.365,0,0,0,.216-.016,1.436,1.436,0,0,0,1-.656l7.156-11.334A1.435,1.435,0,0,0,43.045,66.282Z" transform="translate(-4.101 -9.12)" fill="#f7a765"/>
  </g>
</svg>
