<svg xmlns="http://www.w3.org/2000/svg" width="80" height="80" viewBox="0 0 80 80">
  <g id="customer" transform="translate(0 0.025)">
    <path id="Path_40" data-name="Path 40" d="M75,35.992H5A5,5,0,1,1,5,26H75a5,5,0,1,1,0,9.992ZM5,28.5a2.5,2.5,0,1,0,0,5H75a2.5,2.5,0,1,0,0-5Z" transform="translate(0 38.987)" fill="#f7a765"/>
    <path id="Path_41" data-name="Path 41" d="M70.758,79.975a1.181,1.181,0,0,1-1.25-1.249V74.979H4.5v3.747a1.181,1.181,0,0,1-1.25,1.249A1.181,1.181,0,0,1,2,78.726v-5a1.181,1.181,0,0,1,1.25-1.249H70.758a1.181,1.181,0,0,1,1.25,1.249v5A1.181,1.181,0,0,1,70.758,79.975ZM58.256,22.02h-.75a1.181,1.181,0,0,1-1.25-1.249,1.143,1.143,0,0,1,1-1.249l2.25-6.245a3.281,3.281,0,0,0-.75-3,3.565,3.565,0,0,0-3-1.5,1.181,1.181,0,0,1-1.25-1.249,5.893,5.893,0,0,0-1.75-4,4.5,4.5,0,0,0-4-1l-15,2.5a5.559,5.559,0,0,0-3.25,2,4.92,4.92,0,0,0-.75,3.747L32,19.272a1.143,1.143,0,0,1,1,1.249,1.181,1.181,0,0,1-1.25,1.249H31a1.661,1.661,0,0,1-1.25-1l-2.5-9.493A6.865,6.865,0,0,1,28.5,5.533a7.092,7.092,0,0,1,5-3l15-2.5a7.5,7.5,0,0,1,6,1.749,7.413,7.413,0,0,1,2.5,4.746,5.928,5.928,0,0,1,3.75,2.248,5.834,5.834,0,0,1,1.25,5.246l-2.5,6.995a1.276,1.276,0,0,1-1.25,1Z" transform="translate(2.996 0)" fill="#f7a765"/>
    <path id="Path_42" data-name="Path 42" d="M48.969,14.741h-.749a3.573,3.573,0,0,1-3.5-3.5V7.5a21.284,21.284,0,0,1-15.988,3.5l-2.248-.5a1.115,1.115,0,0,0-.749,1,3.573,3.573,0,0,1-3.5,3.5H21.49a1.18,1.18,0,0,1-1.249-1.249,1.18,1.18,0,0,1,1.249-1.249h.749a1.075,1.075,0,0,0,1-1,3.573,3.573,0,0,1,3.5-3.5l2.5.5A18.033,18.033,0,0,0,43.473,5.248a2.956,2.956,0,0,1,2.5-.25A2.547,2.547,0,0,1,47.22,7v4.247a1.075,1.075,0,0,0,1,1h.749a1.18,1.18,0,0,1,1.249,1.249,1.18,1.18,0,0,1-1.249,1.249Zm12.74,45.465H9.249a1.249,1.249,0,0,1,0-2.5H60.46V49.714a9.153,9.153,0,0,0-6.245-8.743l-11.741-4a1.185,1.185,0,0,1,.749-2.248l11.741,4a11.631,11.631,0,0,1,7.994,11.241v9.243A1.143,1.143,0,0,1,61.709,60.206Z" transform="translate(12.046 7.279)" fill="#f7a765"/>
    <path id="Path_43" data-name="Path 43" d="M57.215,56.962H44.724a1.18,1.18,0,0,1-1.249-1.249v-2A13.8,13.8,0,0,1,55.716,39.975a1.908,1.908,0,0,1,1.249.5,12.825,12.825,0,0,1,1.749,6v9.243a1.583,1.583,0,0,1-1.5,1.249Zm-11.241-2.5h9.992V46.47a7.91,7.91,0,0,0-1-4,11.515,11.515,0,0,0-9.243,11.241v.749Zm-2.5-30.976H34.732a1.249,1.249,0,0,1,0-2.5h8.743a5.011,5.011,0,0,0,5-5V11.746a1.249,1.249,0,1,1,2.5,0v4.247a7.684,7.684,0,0,1-7.494,7.494Zm-26.23-6.5h-2.5A3.842,3.842,0,0,1,11,13.245v-2.5A3.842,3.842,0,0,1,14.747,7H16a1.18,1.18,0,0,1,1.249,1.249A1.18,1.18,0,0,1,16,9.5H14.747A1.18,1.18,0,0,0,13.5,10.747v2.5a1.18,1.18,0,0,0,1.249,1.249H16V12a1.249,1.249,0,0,1,2.5,0v3.747A1.18,1.18,0,0,1,17.245,16.992Z" transform="translate(16.54 10.523)" fill="#f7a765"/>
    <path id="Path_44" data-name="Path 44" d="M60.7,16.992h-2.5a1.18,1.18,0,0,1-1.249-1.249V12a1.249,1.249,0,1,1,2.5,0v2.5H60.7a1.18,1.18,0,0,0,1.249-1.249v-2.5A1.18,1.18,0,0,0,60.7,9.5H59.456a1.18,1.18,0,0,1-1.249-1.249A1.18,1.18,0,0,1,59.456,7H60.7a3.842,3.842,0,0,1,3.747,3.747v2.5A3.842,3.842,0,0,1,60.7,16.992ZM41.969,56.962H7a5.011,5.011,0,0,1-5-5V48.218a1.18,1.18,0,0,1,1.249-1.249H45.716a1.18,1.18,0,0,1,1.249,1.249v3.747A5.011,5.011,0,0,1,41.969,56.962ZM4.5,49.467v2.5a2.36,2.36,0,0,0,2.5,2.5H41.969a2.36,2.36,0,0,0,2.5-2.5v-2.5Z" transform="translate(2.996 10.523)" fill="#f7a765"/>
    <path id="Path_45" data-name="Path 45" d="M40.72,40.479H3.249A1.18,1.18,0,0,1,2,39.23V14.249A1.18,1.18,0,0,1,3.249,13H40.72a1.18,1.18,0,0,1,1.249,1.249V39.23A1.18,1.18,0,0,1,40.72,40.479ZM4.5,37.981H39.471V15.5H4.5Z" transform="translate(2.996 19.512)" fill="#f7a765"/>
    <path id="Path_46" data-name="Path 46" d="M22.01,29.288h-.5s-2-1-4-2.248a1.249,1.249,0,1,1,1.5-2,21.875,21.875,0,0,0,3,1.749c2-1,6-3.5,6-6V15.549a1.249,1.249,0,0,1,2.5,0V20.8c0,4.746-7.244,7.994-7.994,8.493Z" transform="translate(25.493 21.459)" fill="#f7a765"/>
    <path id="Path_47" data-name="Path 47" d="M27.988,27.985a21.865,21.865,0,0,1-4-.5,1.66,1.66,0,0,1-1-1.249V22.988H17.5a1.894,1.894,0,0,1-1-.5A14.354,14.354,0,0,1,13,13V9.249a1.249,1.249,0,0,1,2.5,0V13A12.844,12.844,0,0,0,18,20.49h6.245a1.18,1.18,0,0,1,1.249,1.249v3.5a8.5,8.5,0,0,0,2.5.25A12.369,12.369,0,0,0,40.479,13V9.249a1.249,1.249,0,0,1,2.5,0V13A15.033,15.033,0,0,1,27.988,27.985Z" transform="translate(19.515 12.021)" fill="#f7a765"/>
    <circle id="Ellipse_1" data-name="Ellipse 1" cx="2.498" cy="2.498" r="2.498" transform="translate(22.501 43.753)" fill="#f7a765"/>
  </g>
</svg>
