<svg xmlns="http://www.w3.org/2000/svg" width="81.016" height="81.007" viewBox="0 0 81.016 81.007">
  <g id="reshot-icon-24-7-T78YXBSG93" transform="translate(-0.434 0.507)">
    <g id="Group_156" data-name="Group 156" transform="translate(0.95 16.496)">
      <path id="Path_34" data-name="Path 34" d="M52.44,90.443h0c-11.429,0-24.144-6.55-34.886-17.968C6.164,60.988.136,47.661,1.039,35.937l.03-.388.244-.3c.876-1.09,1.683-2.008,2.467-2.808a34.808,34.808,0,0,1,5.956-4.828l1.046-.672.683,1.039a178.29,178.29,0,0,0,10.73,14.607l.638.784-.628.792a2.079,2.079,0,0,1-.488.463L17.1,47.744a1.56,1.56,0,0,0-.622,1.04,3.3,3.3,0,0,0,.592,2.433c1.408,2.045,7.042,8.387,10.587,12.2,3.731,3.577,9.946,9.273,11.958,10.709a3.309,3.309,0,0,0,1.888.638,1.712,1.712,0,0,0,1.479-.659l.866-1.325q1.108-1.7,2.219-3.392a2.277,2.277,0,0,1,.444-.475l.807-.669.8.674A176.024,176.024,0,0,0,62.493,79.811l1,.677-.638,1.026A34.976,34.976,0,0,1,58.1,87.556a37.16,37.16,0,0,1-2.762,2.517l-.307.255-.4.032C53.92,90.415,53.181,90.443,52.44,90.443ZM3.518,36.516c-.684,10.9,5.073,23.35,15.844,34.213,10.292,10.939,22.34,17.2,33.078,17.2h0c.539,0,1.076-.016,1.6-.049.871-.738,1.615-1.423,2.267-2.087a32.525,32.525,0,0,0,3.756-4.6c-4.213-2.9-8.416-6.085-12.524-9.485-.528.807-1.061,1.624-1.595,2.441l-.863,1.32A4.19,4.19,0,0,1,41.5,77.277a5.837,5.837,0,0,1-3.349-1.107C35.941,74.593,29.527,68.7,25.887,65.2l-.05-.05C22.378,61.435,16.542,54.888,15,52.647a5.779,5.779,0,0,1-.993-4.338A4.035,4.035,0,0,1,15.7,45.655l3.714-2.509c-3.355-4.18-6.493-8.452-9.351-12.731A32.337,32.337,0,0,0,5.57,34.2C4.921,34.863,4.246,35.624,3.518,36.516Z" transform="translate(-0.95 -26.939)" fill="#f7a765" stroke="#f7a765" stroke-width="1"/>
    </g>
    <g id="Group_161" data-name="Group 161" transform="translate(29.609 17.144)">
      <g id="Group_160" data-name="Group 160">
        <g id="Group_157" data-name="Group 157">
          <path id="Path_35" data-name="Path 35" d="M62.021,58.648H45.871l-.085-1.166c-.012-.161-.248-4,3.087-8.977,1.414-2.11,3.915-3.879,6.333-5.589,2.78-1.967,5.655-4,5.655-5.843V36.1a5.945,5.945,0,1,0-11.888,0H46.46a8.459,8.459,0,1,1,16.916,0v.973c0,3.143-3.263,5.452-6.717,7.895-2.233,1.579-4.541,3.212-5.7,4.937a15.407,15.407,0,0,0-2.578,6.23H62.021v2.514Z" transform="translate(-45.779 -27.526)" fill="#f7a765" stroke="#f7a765" stroke-width="1"/>
        </g>
        <g id="Group_158" data-name="Group 158" transform="translate(29.391 0.283)">
          <rect id="Rectangle_10" data-name="Rectangle 10" width="2.514" height="31.208" fill="#f7a765" stroke="#f7a765" stroke-width="1"/>
        </g>
        <g id="Group_159" data-name="Group 159" transform="translate(16.484 0.603)">
          <path id="Path_36" data-name="Path 36" d="M90.984,51.514h-17.9L72.011,49.6,84.889,28.485l2.147,1.309L75.323,49H90.984Z" transform="translate(-72.011 -28.485)" fill="#f7a765" stroke="#f7a765" stroke-width="1"/>
        </g>
      </g>
    </g>
    <g id="Group_165" data-name="Group 165" transform="translate(16.723)">
      <g id="Group_162" data-name="Group 162" transform="translate(0 10.293)">
        <path id="Path_37" data-name="Path 37" d="M26.635,19.037,24.84,17.276c.3-.3.6-.6.911-.9L27.487,18.2Q27.056,18.609,26.635,19.037Z" transform="translate(-24.84 -16.38)" fill="#f7a765" stroke="#f7a765" stroke-width="1"/>
      </g>
      <g id="Group_163" data-name="Group 163" transform="translate(2.85)">
        <path id="Path_38" data-name="Path 38" d="M81.482,63.29l-1.9-1.641c.434-.5.86-1.027,1.267-1.558l1.994,1.531C82.4,62.189,81.946,62.749,81.482,63.29Zm2.884-3.806-2.1-1.389c.451-.68.883-1.383,1.286-2.092l2.186,1.242C85.311,58,84.848,58.756,84.366,59.484Zm2.6-4.57L84.7,53.826c.351-.73.682-1.486.985-2.248l2.336.929C87.692,53.322,87.337,54.132,86.961,54.914ZM88.9,50.031l-2.394-.767c.249-.777.474-1.572.67-2.364l2.441.6C89.411,48.35,89.17,49.2,88.9,50.031Zm1.259-5.1L87.687,44.5c.141-.8.256-1.617.344-2.434l2.5.268C90.438,43.2,90.314,44.078,90.163,44.933Zm.559-5.225-2.512-.1q.027-.714.028-1.428c0-.342-.006-.687-.014-1.032l2.513-.069c.011.366.015.733.016,1.1Q90.752,38.946,90.722,39.708ZM88.072,34.7c-.08-.819-.187-1.639-.319-2.439l2.481-.409c.141.854.255,1.731.339,2.606Zm-.8-4.849c-.189-.8-.406-1.6-.645-2.373l2.4-.741c.256.831.488,1.684.689,2.537Zm-1.45-4.7c-.293-.759-.616-1.52-.961-2.261l2.278-1.063c.37.793.716,1.607,1.029,2.421ZM83.746,20.7c-.395-.713-.82-1.423-1.264-2.108l2.109-1.367c.475.733.93,1.493,1.354,2.257ZM81.075,16.58c-.491-.654-1.009-1.3-1.542-1.914l1.9-1.644c.57.659,1.126,1.348,1.651,2.049Zm-3.213-3.718c-.577-.583-1.179-1.149-1.789-1.685l1.66-1.888c.653.573,1.3,1.179,1.915,1.8ZM30.979,10.508l-1.6-1.935c.676-.56,1.377-1.1,2.084-1.608l1.465,2.043C32.264,9.48,31.61,9.985,30.979,10.508Zm43.2-.887c-.648-.495-1.322-.971-2-1.418l1.381-2.1c.729.479,1.451.991,2.145,1.52ZM34.969,7.646l-1.318-2.14c.748-.461,1.519-.9,2.29-1.3L37.1,6.435C36.385,6.81,35.666,7.218,34.969,7.646Zm35.107-.718c-.713-.4-1.446-.777-2.18-1.122l1.07-2.275c.788.371,1.575.776,2.339,1.2ZM39.32,5.377l-1-2.306c.8-.349,1.629-.673,2.451-.963L41.6,4.48C40.839,4.749,40.07,5.051,39.32,5.377Zm26.32-.536c-.759-.293-1.539-.564-2.317-.8l.738-2.4c.836.256,1.672.546,2.487.862Zm-21.693-1.1-.665-2.424c.839-.231,1.7-.434,2.561-.606l.493,2.465C45.533,3.34,44.729,3.531,43.946,3.746ZM60.953,3.4c-.791-.183-1.6-.341-2.409-.468L58.936.451c.866.136,1.735.305,2.583.5Zm-12.2-.616L48.442.292C49.31.182,50.193.1,51.063.053l.139,2.51C50.39,2.608,49.568,2.683,48.758,2.786Zm7.349-.148c-.81-.07-1.634-.111-2.45-.124L53.7,0c.875.013,1.759.058,2.629.133Z" transform="translate(-29.375)" fill="#f7a765" stroke="#f7a765" stroke-width="1"/>
      </g>
      <g id="Group_164" data-name="Group 164" transform="translate(51.423 62.548)">
        <path id="Path_39" data-name="Path 39" d="M108.469,102.168l-1.795-1.76q.422-.431.828-.869l1.846,1.706Q108.917,101.711,108.469,102.168Z" transform="translate(-106.674 -99.539)" fill="#f7a765" stroke="#f7a765" stroke-width="1"/>
      </g>
    </g>
  </g>
</svg>
