<svg xmlns="http://www.w3.org/2000/svg" width="65" height="80" viewBox="0 0 65 80">
  <g id="warning_1_" data-name="warning (1)" transform="translate(-7 -2)">
    <path id="Path_58" data-name="Path 58" d="M71.611,73.057l-7.959-8a1.323,1.323,0,0,0-.938-.391h-39.8V62a3.99,3.99,0,0,0-3.98-4H10.98a1.333,1.333,0,0,1,0-2.667h7.959a3.99,3.99,0,0,0,3.98-4V48.667H32.2V54H26.9a1.33,1.33,0,0,0-1.327,1.333v5.333A1.33,1.33,0,0,0,26.9,62H53.429a1.33,1.33,0,0,0,1.327-1.333V55.333A1.33,1.33,0,0,0,53.429,54H48.122V48.667H66.694a3.99,3.99,0,0,0,3.98-4V10a3.99,3.99,0,0,0-3.98-4H57.408V8.667h9.286A1.33,1.33,0,0,1,68.02,10V38H12.306V10a1.33,1.33,0,0,1,1.327-1.333h9.286V6H13.633a3.99,3.99,0,0,0-3.98,4V44.667a3.99,3.99,0,0,0,3.98,4h6.633v2.667a1.33,1.33,0,0,1-1.327,1.333H10.98a4,4,0,0,0,0,8h7.959A1.33,1.33,0,0,1,20.265,62v2.667H17.612a1.323,1.323,0,0,0-.938.39l-7.959,8A1.337,1.337,0,0,0,8.327,74v4a2.66,2.66,0,0,0,2.653,2.667H69.347A2.66,2.66,0,0,0,72,78V74a1.337,1.337,0,0,0-.388-.942ZM52.1,59.333H28.224V56.667H52.1ZM45.469,54H34.857V48.667H45.469ZM12.306,44.667v-4H68.02v4A1.33,1.33,0,0,1,66.694,46H13.633A1.33,1.33,0,0,1,12.306,44.667Zm5.855,22.667h44l5.306,5.333H12.855ZM10.98,78V75.333H69.347V78Z" transform="translate(0 1.333)" fill="#f7a765"/>
    <path id="Path_59" data-name="Path 59" d="M16,70h2.667v2.667H16Zm5.333,0H24v2.667H21.333Zm29.333,0h2.667v2.667H50.667Zm-24,0H48v2.667H26.667ZM56,70h2.667v2.667H56Zm1.333-26.667H60V46H57.333ZM50.667,28.667h-.173L48.64,15.72A6.708,6.708,0,0,0,42.04,10H32.627a6.708,6.708,0,0,0-6.6,5.72L24.173,28.667H24a4,4,0,1,0,0,8H50.667a4,4,0,1,0,0-8Zm-22-12.56a4.027,4.027,0,0,1,3.96-3.44H42.04A4.027,4.027,0,0,1,46,16.107l1.8,12.56H38.667V23.093a4,4,0,1,0-2.667,0v5.573H26.867Zm8.667,4.56a1.333,1.333,0,1,1,1.333-1.333A1.333,1.333,0,0,1,37.333,20.667ZM50.667,34H24a1.333,1.333,0,1,1,0-2.667H50.667a1.333,1.333,0,1,1,0,2.667ZM36,2h2.667V7.333H36ZM48.267,9.2l4-5.333,2.132,1.6-4,5.333Zm-28-3.733,2.133-1.6,4,5.333-2.133,1.6Z" transform="translate(2.667)" fill="#f7a765"/>
  </g>
</svg>
