<svg xmlns="http://www.w3.org/2000/svg" width="20" height="20" viewBox="0 0 20 20">
  <path id="linkedin" d="M7.43,23.454H3.142V9.966H7.43ZM5.315,3.463A2.207,2.207,0,0,0,3.237,4.552a2.427,2.427,0,0,0-.03,2.429A2.212,2.212,0,0,0,5.258,8.125h.029a2.208,2.208,0,0,0,2.086-1.1,2.428,2.428,0,0,0,.015-2.441A2.211,2.211,0,0,0,5.315,3.463ZM9.8,23.454h4.288V15.922a3.2,3.2,0,0,1,.141-1.093,2.356,2.356,0,0,1,2.2-1.639c1.556,0,2.173,1.236,2.173,3.05v7.214H22.9V15.72c0-4.142-2.112-6.071-4.938-6.071a4.217,4.217,0,0,0-3.865,2.224V9.966H9.8c.057,1.265,0,13.489,0,13.489Z" transform="translate(-2.896 -3.455)" fill="#19191d"/>
</svg>
