<svg xmlns="http://www.w3.org/2000/svg" width="426.918" height="116" viewBox="0 0 426.918 116">
  <g id="Group_308" data-name="Group 308" transform="translate(-160 481)">
    <path id="Path_13" data-name="Path 13" d="M56.186,650.953c-10.855-12.022-19.258-28.168-22.215-42.68a70.314,70.314,0,0,1,1.284-33.654A74.988,74.988,0,0,1,39.5,563.454c.934-1.829-.117-.934-1.6,1.362a84.258,84.258,0,0,0-11.555,28.012c-1.167,5.8-1.245,15.913-.156,20.854A52.29,52.29,0,0,0,34.9,633.29c4.319,6.069,12.683,13.617,20.348,18.325,1.556.973,2.918,1.751,3,1.751A23.42,23.42,0,0,0,56.186,650.953Z" transform="translate(134.581 -1018.365)" fill="#506381"/>
    <path id="Path_24" data-name="Path 24" d="M71.8,573.2a119.009,119.009,0,0,1,0-21.709c3.112-22.176,14.473-39.139,33.5-49.994,2.412-1.362,5.291-2.879,6.458-3.346,3.151-1.323,2.529-1.6-1.089-.467-12.333,3.774-22.76,9.726-30.5,17.391C70.28,524.876,66,535.186,66,549.114a63.183,63.183,0,0,0,2.3,16.963c1.245,4.669,3.5,11.244,3.813,10.933A18.017,18.017,0,0,0,71.8,573.2Z" transform="translate(109.788 -977.974)" fill="#f7a765"/>
    <path id="Path_25" data-name="Path 25" d="M117.048,615.979c11.049-22.721,29.841-37.855,52.912-42.641,4.863-1.012,14.94-1.906,17.08-1.517.739.156,1.284.078,1.284-.156,0-.195-.584-.467-1.245-.622-31.28-5.8-54,3.424-65.673,26.612a66.366,66.366,0,0,0-5.213,14.006c-1.128,4.552-1.79,8.559-1.44,8.559A35.872,35.872,0,0,0,117.048,615.979Z" transform="translate(80.061 -1022.356)" fill="#506381"/>
    <path id="Path_26" data-name="Path 26" d="M107.058,559.693c5.836-13.267,14.823-24.783,24.9-32.02a68.863,68.863,0,0,1,24.511-10.544,96.9,96.9,0,0,1,13.189-1.439c3.385-.039,1.012-.584-5.1-1.167-12.45-1.128-24.433.973-34.315,5.992-15.134,7.7-24.355,22.332-27.468,43.575a68.853,68.853,0,0,0-.778,7.275l.039,2.14,1.673-5.058C104.646,565.684,106.163,561.716,107.058,559.693Z" transform="translate(87.794 -988.514)" fill="#f7a765"/>
    <g id="Group_319" data-name="Group 319">
      <path id="Path_14" data-name="Path 14" d="M525.445,675.046a13.258,13.258,0,0,0,2.918-1.829c.622-.7.584-.817-1.011-2.412l-1.673-1.712-1.362.934a9.694,9.694,0,0,1-11.983-.7c-5.174-4.708-3.074-14.045,3.54-15.874a11.189,11.189,0,0,1,7.82.973l1.829,1.012,1.556-1.6,1.6-1.6-1.167-.973c-2.646-2.14-4.4-2.685-8.754-2.685a16.176,16.176,0,0,0-6.03.739,14.4,14.4,0,0,0-7.042,6.964c-.973,2.14-1.128,2.84-1.089,6.108.039,5.991,2.062,9.843,6.419,12.216,2.84,1.556,3.852,1.751,8.326,1.634C522.722,676.174,523.5,676.019,525.445,675.046Z" transform="translate(-158.211 -1070.851)" fill="#f7a765"/>
      <path id="Path_17" data-name="Path 17" d="M297.43,672.635c.856-2.1,3.424-8.17,5.641-13.539l4.046-9.726-2.762-.117c-1.478-.078-2.84.039-2.957.272-.117.195-1.984,4.824-4.124,10.31s-3.968,9.96-4.085,9.96-1.906-4.435-4.046-9.843c-2.1-5.447-3.929-10.077-4.085-10.349q-.292-.467-3.035-.35l-2.723.117,5.641,13.539,5.641,13.5h5.252Z" transform="translate(-20.552 -1071.241)" fill="#f7a765"/>
      <path id="Path_18" data-name="Path 18" d="M441.058,667.142v-9.182l7.12,9.143,7.081,9.182h1.673l1.634.039V649.09h-5.058v8.17a60.458,60.458,0,0,1-.272,8.17c-.195,0-3.19-3.7-6.731-8.17l-6.419-8.17H436v27.234h5.058Z" transform="translate(-116.302 -1071.156)" fill="#f7a765"/>
      <path id="Path_19" data-name="Path 19" d="M595.231,673.8v-2.529H580.058v-6.225h14.784v-4.669H580.058v-6.225h15.173V649.09H575v27.234h20.231Z" transform="translate(-201.236 -1071.156)" fill="#f7a765"/>
      <path id="Path_27" data-name="Path 27" d="M153.238,663.847c-3.074-6.925-5.8-13.072-6.03-13.656-.389-1.05-.428-1.089-3.268-.973l-2.918.117-5.992,13.384c-3.307,7.392-6.03,13.461-6.03,13.539a14.388,14.388,0,0,0,2.723.117h2.723l1.128-2.529,1.167-2.529H151.1l1.089,2.529,1.089,2.529h5.6Zm-9.221,2.8c-2.685,0-4.9-.156-4.9-.35,0-.389,3.5-8.715,4.357-10.31.506-.973.584-.856,2.8,4.319,1.245,2.957,2.373,5.6,2.451,5.875C148.881,666.532,147.792,666.648,144.018,666.648Z" transform="translate(71.299 -1071.207)" fill="#f7a765"/>
      <path id="Path_28" data-name="Path 28" d="M236.8,656.6a13.8,13.8,0,0,0-5.525-6.069c-2.062-1.05-5.174-1.44-11.244-1.44H214V676.4l7.314-.156c6.381-.117,7.509-.233,9.1-.973a13.536,13.536,0,0,0,6.381-6.458c.973-2.1,1.128-2.879,1.128-6.108S237.771,658.7,236.8,656.6Zm-8.17,13.928c-1.206.545-2.529.739-5.564.739h-4.007V653.642l4.007.195c5.6.272,7.509,1.284,9.182,4.98C234.231,663.174,232.48,668.776,228.629,670.527Z" transform="translate(19.35 -1071.156)" fill="#f7a765"/>
      <path id="Path_29" data-name="Path 29" d="M376.238,663.847c-3.074-6.925-5.8-13.072-6.03-13.656-.389-1.05-.428-1.089-3.268-.973l-2.918.117-5.991,13.384c-3.307,7.392-6.03,13.461-6.03,13.539a14.387,14.387,0,0,0,2.723.117h2.723l1.128-2.529,1.167-2.529H374.1l1.089,2.529,1.089,2.529h5.6Zm-9.221,2.8c-2.685,0-4.9-.156-4.9-.35,0-.389,3.5-8.715,4.357-10.31.506-.973.584-.856,2.8,4.319,1.245,2.957,2.373,5.6,2.451,5.875C371.881,666.532,370.792,666.648,367.018,666.648Z" transform="translate(-64.975 -1071.207)" fill="#f7a765"/>
      <path id="Path_30" data-name="Path 30" d="M659.8,656.6a13.8,13.8,0,0,0-5.525-6.069c-2.062-1.05-5.175-1.44-11.244-1.44H637V676.4l7.314-.156c6.381-.117,7.509-.233,9.1-.973a13.536,13.536,0,0,0,6.38-6.458c.973-2.1,1.128-2.879,1.128-6.108S660.771,658.7,659.8,656.6Zm-8.17,13.928c-1.206.545-2.529.739-5.564.739h-4.007V653.642l4.007.195c5.6.272,7.509,1.284,9.182,4.98C657.231,663.174,655.48,668.776,651.629,670.527Z" transform="translate(-239.121 -1071.156)" fill="#f7a765"/>
    </g>
    <g id="Group_320" data-name="Group 320">
      <path id="Path_15" data-name="Path 15" d="M915.836,675.182a17.664,17.664,0,0,0,3.346-1.984l1.245-1.089V661.682H909.144v1.945h9.337v3.813c0,4.357-.078,4.513-3.307,5.953a13.826,13.826,0,0,1-8.948.584,9.418,9.418,0,0,1-4.474-2.879,8.832,8.832,0,0,1-2.84-4.591c-1.44-5.136-.506-9.221,2.84-12.683a8.562,8.562,0,0,1,4.241-2.8,13.505,13.505,0,0,1,11.36,1.556c1.4.973,1.6,1.011,2.14.467s.506-.7-.7-1.6c-2.762-2.14-4.863-2.8-8.871-2.762-2.957,0-4.085.156-5.6.856a12.476,12.476,0,0,0-6.536,6.225c-1.206,2.451-1.284,2.84-1.284,6.692,0,3.579.117,4.357,1.012,6.225a12.285,12.285,0,0,0,8.676,7.275A16.851,16.851,0,0,0,915.836,675.182Z" transform="translate(-397.687 -1070.91)" fill="#506381"/>
      <path id="Path_16" data-name="Path 16" d="M1080.836,675.182a17.672,17.672,0,0,0,3.346-1.984l1.245-1.089V661.682h-11.283v1.945h9.337v3.813c0,4.357-.078,4.513-3.307,5.953a13.825,13.825,0,0,1-8.948.584,9.418,9.418,0,0,1-4.474-2.879,8.833,8.833,0,0,1-2.84-4.591c-1.439-5.136-.506-9.221,2.84-12.683a8.563,8.563,0,0,1,4.241-2.8,13.505,13.505,0,0,1,11.36,1.556c1.4.973,1.6,1.011,2.14.467s.506-.7-.7-1.6c-2.762-2.14-4.863-2.8-8.871-2.762-2.957,0-4.085.156-5.6.856a12.476,12.476,0,0,0-6.536,6.225c-1.206,2.451-1.284,2.84-1.284,6.692,0,3.579.117,4.357,1.012,6.225a12.285,12.285,0,0,0,8.676,7.275A16.852,16.852,0,0,0,1080.836,675.182Z" transform="translate(-498.509 -1070.91)" fill="#506381"/>
      <path id="Path_20" data-name="Path 20" d="M731.945,662.707V649.09H730v27.234h1.945Z" transform="translate(-295.945 -1071.156)" fill="#506381"/>
      <path id="Path_21" data-name="Path 21" d="M753.023,664.38l.117-11.905,5.213,7.82c2.879,4.318,5.33,7.859,5.486,7.859a95.363,95.363,0,0,0,5.486-7.859l5.213-7.9.117,11.983.078,11.944h1.945V649.09h-1.245c-1.245,0-1.478.311-6.342,7.781-2.762,4.28-5.174,7.781-5.291,7.781-.156,0-2.568-3.5-5.369-7.781-4.747-7.237-5.213-7.781-6.264-7.781H751v27.234h1.945Z" transform="translate(-308.781 -1071.156)" fill="#506381"/>
      <path id="Path_22" data-name="Path 22" d="M975.945,662.707V649.09H974v27.234h1.945Z" transform="translate(-445.052 -1071.156)" fill="#506381"/>
      <path id="Path_23" data-name="Path 23" d="M997.023,665.2l.117-11.088,9.1,11.088c4.98,6.108,9.221,11.127,9.415,11.127s.35-5.914.35-13.617V649.09h-1.945l-.078,11.127-.117,11.166-9.065-11.166c-5.019-6.108-9.26-11.127-9.454-11.127s-.35,5.8-.35,13.617v13.617h1.945Z" transform="translate(-457.882 -1071.156)" fill="#506381"/>
      <path id="Path_31" data-name="Path 31" d="M846.226,663.8c-3.112-6.925-5.836-13.033-6.069-13.617-.311-.895-.622-1.089-1.6-1.089-1.245,0-1.284.117-4.046,6.381-1.556,3.463-4.318,9.61-6.108,13.617l-3.307,7.275,1.206-.117c1.128-.117,1.323-.389,2.607-3.307l1.362-3.229h16.379l1.439,3.229c1.284,2.879,1.517,3.19,2.607,3.307l1.167.117Zm-7.742,3.968c-3.968,0-7.2-.078-7.2-.156,0-.428,6.925-15.835,7.159-15.913s7.237,15.407,7.237,15.913C845.681,667.687,842.452,667.765,838.484,667.765Z" transform="translate(-354.059 -1071.156)" fill="#506381"/>
    </g>
  </g>
</svg>
