<svg xmlns="http://www.w3.org/2000/svg" width="38" height="25.786" viewBox="0 0 38 25.786">
  <path id="car-car-engine-svgrepo-com" d="M44.479,119.356a.66.66,0,0,1-.656.665H40.6a.665.665,0,0,1,0-1.329h3.227A.66.66,0,0,1,44.479,119.356Zm-7.111-.665H34.141a.665.665,0,0,0,0,1.329h3.227a.665.665,0,0,0,0-1.329Zm12.91,0H47.051a.665.665,0,0,0,0,1.329H50.28a.665.665,0,0,0,0-1.329Zm-16.131-1.916a2.306,2.306,0,1,1,2.278-2.306A2.291,2.291,0,0,1,34.148,116.776Zm0-1.329a.977.977,0,1,0-.965-.977A.971.971,0,0,0,34.148,115.447Zm18.4-2.618V116.1a.66.66,0,0,1-.656.665H45.437a.66.66,0,0,1-.656-.665v-3.271a.66.66,0,0,1,.656-.665h6.455a.66.66,0,0,1,.656.665Zm-1.312.665H46.092v1.942h5.143Zm10.994-8.84v19.622a2.27,2.27,0,1,1-4.539,0v-2.61H55.7a2.179,2.179,0,0,1-2.1,1.639H30.817a2.186,2.186,0,0,1-2.169-2.2V118.7H27.229v2.932a.66.66,0,0,1-.656.665H24.886a.66.66,0,0,1-.656-.665V107.287a.66.66,0,0,1,.656-.665h1.687a.66.66,0,0,1,.656.665v2.932h1.415v-2.4a2.186,2.186,0,0,1,2.169-2.2H32.56V104.3h-.6a.66.66,0,0,1-.656-.665v-2.184a.66.66,0,0,1,.656-.665h4.364a.66.66,0,0,1,.656.665v2.184a.66.66,0,0,1-.656.665h-.6v1.322h4.907V104.3h-.6a.66.66,0,0,1-.656-.665v-2.184a.66.66,0,0,1,.656-.665h4.364a.66.66,0,0,1,.656.665v2.184a.66.66,0,0,1-.656.665h-.6v1.322H48.7V104.3h-.6a.66.66,0,0,1-.656-.665v-2.184a.66.66,0,0,1,.656-.665H52.46a.66.66,0,0,1,.656.665v2.184a.66.66,0,0,1-.656.665h-.6v1.322h1.747a2.177,2.177,0,0,1,2.1,1.635h1.988v-2.607a2.27,2.27,0,1,1,4.539,0ZM59,118.7h1.916v-1.94H59Zm1.916-3.27v-1.94H59v1.94Zm0-3.269v-1.94H59v1.94Zm0-3.27v-1.94H59v1.94ZM59,121.971h1.916v-1.94H59Zm0-17.318v.972h1.916v-.972a.958.958,0,0,0-1.916,0Zm-10.247-1.68H51.8v-.855H48.752Zm1.254,2.652h.539V104.3h-.539Zm-9.326-2.652h3.052v-.855H40.684Zm1.257,2.652h.539V104.3H41.94Zm-9.326-2.652h3.053v-.855H32.615Zm1.257,2.652h.539V104.3h-.539Zm-3.916,2.2v1.072H54.461v-1.072a.864.864,0,0,0-.854-.868H30.817a.853.853,0,0,0-.608.253A.876.876,0,0,0,29.955,107.822Zm-4.038,10.211V107.951h-.375v13.015h.375Zm2.727-.665v-5.825H27.229v5.825Zm25.823-7.144H29.955v10.882a.864.864,0,0,0,.857.869H53.6a.864.864,0,0,0,.858-.87Zm3.224,10.111V108.588H55.772v11.748Zm3.227,3.939V123.3H59v.975a.974.974,0,0,0,.471.865.948.948,0,0,0,.974,0,.974.974,0,0,0,.471-.865Z" transform="translate(-24.23 -100.79)" fill="#19191d"/>
</svg>
