<svg xmlns="http://www.w3.org/2000/svg" width="38" height="25.786" viewBox="0 0 38 25.786">
  <path id="car-engine-parts-svgrepo-com" d="M39,26.349H36.548V25.121H34.1V24.2l-2.86-2.149H29.194V15.3a1.843,1.843,0,0,0-1.839-1.842h-.613v-.614A1.843,1.843,0,0,0,24.9,11H7.742a1.836,1.836,0,0,0-1.726,1.228H1v3.684H5.9V18.48a1.839,1.839,0,0,0-1.226,1.729v4.3H1V34.33H4.677v.614a1.843,1.843,0,0,0,1.839,1.842H24.9a1.836,1.836,0,0,0,1.726-1.228h.726a1.836,1.836,0,0,0,1.726-1.228h2.156l2.86-2.149V31.26h2.452V30.032H39ZM25.516,12.842v.614H23.065v4.912H9.581V12.228H24.9A.614.614,0,0,1,25.516,12.842ZM7.742,12.228h.613v6.139H7.129V12.842A.614.614,0,0,1,7.742,12.228ZM2.226,14.684V13.456H5.9v1.228ZM4.677,25.735V27.3a2.372,2.372,0,0,0-2.452,0V25.735Zm0,3.684A1.226,1.226,0,1,1,3.452,28.19,1.228,1.228,0,0,1,4.677,29.418ZM2.226,33.1V31.533a2.372,2.372,0,0,0,2.452,0V33.1Zm23.29,1.842a.614.614,0,0,1-.613.614H9.581V21.437H8.355V35.558H6.516a.614.614,0,0,1-.613-.614V20.209a.614.614,0,0,1,.613-.614H21.839V34.33h1.226V19.6H24.9a.614.614,0,0,1,.613.614Zm2.452-1.228a.614.614,0,0,1-.613.614h-.613V20.209A1.843,1.843,0,0,0,24.9,18.367H24.29V14.684h3.065a.614.614,0,0,1,.613.614Zm4.9-2.149L30.828,33.1H29.194V23.279h1.635l2.043,1.535Zm2.452-1.535H34.1V26.349h1.226ZM37.774,28.8H36.548V27.577h1.226Z" transform="translate(-1 -11)" fill="#19191d"/>
</svg>
