<svg xmlns="http://www.w3.org/2000/svg" width="38" height="38" viewBox="0 0 38 38">
  <g id="service" transform="translate(-0.6 -0.5)">
    <path id="Path_314" data-name="Path 314" d="M16.528,28.236A4.173,4.173,0,0,0,15.4,25.412l-5.013-5a1.014,1.014,0,0,0-1.7.565,9.179,9.179,0,0,0-.162,4.034l.081.161,1.779,1.775-.566.081a2.939,2.939,0,0,1-2.1-.887l-2.1-2.1V19.119A3.632,3.632,0,0,0,3.43,15.811a6.009,6.009,0,0,0-2.021-.4H.6v9.843a2.927,2.927,0,0,0,.889,2.1l5.821,5.809V33.4H5.128v6.132h13.26V33.4h-1.86ZM2.54,26.3a1.335,1.335,0,0,1-.4-.968V17.183c.162.081.4.081.566.161a2.014,2.014,0,0,1,1.213,1.775v5.648L6.5,27.349A4.722,4.722,0,0,0,9.817,28.72l2.021-.323a.986.986,0,0,0,.728-.645,1.059,1.059,0,0,0-.243-.968L9.9,24.363a5.636,5.636,0,0,1,0-2.017l4.2,4.2a2.32,2.32,0,0,1,.728,1.694v5.325H8.766v-.242a1.64,1.64,0,0,0-.485-1.21Zm14.149,8.875v2.9H6.745v-2.9h9.945Zm19-19.282A3.632,3.632,0,0,0,33.506,19.2v4.921l-2.1,2.1a2.939,2.939,0,0,1-2.1.887l-.566-.081,1.779-1.775.081-.161a8.437,8.437,0,0,0-.162-4.115.955.955,0,0,0-.728-.726,1.064,1.064,0,0,0-.97.242l-5.013,5a4.027,4.027,0,0,0-1.132,2.824v5.325h-1.86v6.132h13.26V33.642h-2.1v-.323l5.821-5.809a2.927,2.927,0,0,0,.889-2.1V15.489h-.809A5.736,5.736,0,0,0,35.689,15.892Zm-3.4,19.282v2.9H22.349v-2.9h9.945ZM36.9,25.332a1.335,1.335,0,0,1-.4.968l-5.821,5.809a1.64,1.64,0,0,0-.485,1.21v.242H24.128V28.236a2.32,2.32,0,0,1,.728-1.694l4.2-4.2a5.636,5.636,0,0,1,0,2.017l-2.426,2.42a1.059,1.059,0,0,0-.243.968.986.986,0,0,0,.728.645l1.94.323h.162a4.584,4.584,0,0,0,3.315-1.372l2.587-2.582V19.2a1.847,1.847,0,0,1,1.213-1.775,1.5,1.5,0,0,1,.566-.161v8.068ZM19.762,7.1a5.244,5.244,0,0,0-5.5,5,5.144,5.144,0,0,0,1.374,3.792,5.318,5.318,0,0,0,3.638,1.694h.243a5.3,5.3,0,0,0,5.255-5A5.242,5.242,0,0,0,19.762,7.1Zm-.4,8.875a3.712,3.712,0,0,1-2.506-1.21,3.8,3.8,0,0,1-.97-2.582,3.641,3.641,0,0,1,3.638-3.469h.162a3.634,3.634,0,1,1-.323,7.261Z" transform="translate(0 -1.273)" fill="#19191d"/>
    <path id="Path_315" data-name="Path 315" d="M32.119,12.763V9.213l-2.106-.484a7.776,7.776,0,0,0-.891-2.1l1.134-1.856-2.592-2.5L25.8,3.4A6.7,6.7,0,0,0,23.7,2.6L23.21.5H19.647l-.486,2.1a7.838,7.838,0,0,0-2.106.887l-1.863-1.13-2.43,2.582L13.9,6.793a9.619,9.619,0,0,0-.891,2.1L10.9,9.375v3.55l2.106.484a7.776,7.776,0,0,0,.891,2.1l-1.134,1.856,2.592,2.5,1.863-1.13a6.7,6.7,0,0,0,2.106.807l.486,2.1h3.563l.486-2.1a7.838,7.838,0,0,0,2.106-.887l1.863,1.13L30.337,17.2,29.2,15.345a6.639,6.639,0,0,0,.81-2.1Zm-3.482-.807-.081.484a7.308,7.308,0,0,1-.972,2.5l-.243.4.972,1.614-.729.726-1.62-.968-.4.323a7.169,7.169,0,0,1-2.43,1.049l-.486.081-.4,1.856H21.185L20.7,18.169l-.486-.081A7.369,7.369,0,0,1,17.7,17.12l-.4-.242-1.62.968-.81-.807.972-1.614-.324-.4a7.113,7.113,0,0,1-1.053-2.42l-.081-.484-1.863-.4V10.666l1.863-.484.081-.484a7.308,7.308,0,0,1,.972-2.5l.243-.4-.972-1.614.729-.726,1.62.968.4-.323A7.169,7.169,0,0,1,19.89,4.05l.486-.081.4-1.856h1.053l.486,1.856.486.081a7.369,7.369,0,0,1,2.511.968l.4.242,1.62-.968.729.726L27.1,6.632l.324.4a7.113,7.113,0,0,1,1.053,2.42l.081.484,1.863.4v1.049Z" transform="translate(-1.99)" fill="#19191d"/>
  </g>
</svg>
