<svg id="virtual-reality-svgrepo-com" xmlns="http://www.w3.org/2000/svg" width="38" height="38" viewBox="0 0 38 38">
  <circle id="Ellipse_14" data-name="Ellipse 14" cx="0.5" cy="0.5" r="0.5" transform="translate(2 24)" fill="#19191d"/>
  <path id="Path_316" data-name="Path 316" d="M398.638,281.819a1.819,1.819,0,1,0-1.819,1.819A1.821,1.821,0,0,0,398.638,281.819Zm-2.426,0a.606.606,0,1,1,.606.606A.607.607,0,0,1,396.213,281.819Z" transform="translate(-363.064 -257.362)" fill="#19191d"/>
  <path id="Path_317" data-name="Path 317" d="M122.5,212.883A7.883,7.883,0,1,0,130.383,205,7.892,7.892,0,0,0,122.5,212.883Zm7.277-6.518v5.911h-2.412a10.755,10.755,0,0,1,.988-4.268A3.537,3.537,0,0,1,129.777,206.365Zm0,7.124V219.4a3.537,3.537,0,0,1-1.424-1.643,10.755,10.755,0,0,1-.988-4.268h2.412Zm1.213,5.911v-5.911H133.4a10.753,10.753,0,0,1-.988,4.268A3.536,3.536,0,0,1,130.989,219.4Zm0-7.124v-5.911a3.536,3.536,0,0,1,1.424,1.643,10.755,10.755,0,0,1,.988,4.268h-2.412Zm-3.334-5.478a11.067,11.067,0,0,0-1.505,5.478h-2.409A6.683,6.683,0,0,1,127.655,206.8Zm-3.914,6.691h2.409a11.069,11.069,0,0,0,1.505,5.478A6.683,6.683,0,0,1,123.742,213.489Zm9.369,5.478a11.066,11.066,0,0,0,1.505-5.478h2.409A6.683,6.683,0,0,1,133.111,218.968Zm3.914-6.691h-2.409a11.068,11.068,0,0,0-1.505-5.478A6.683,6.683,0,0,1,137.024,212.277Z" transform="translate(-112.596 -188.426)" fill="#19191d"/>
  <path id="Path_318" data-name="Path 318" d="M70.511,166.213a.606.606,0,0,0,0-1.213h-9.9a.606.606,0,0,0-.606.606v21.021a.606.606,0,0,0,.606.606h24.66a.606.606,0,0,0,.606-.606V165.606a.606.606,0,0,0-.606-.606h-8.9a.606.606,0,0,0,0,1.213H84.66v19.809H61.213V166.213Z" transform="translate(-55.149 -151.66)" fill="#19191d"/>
  <path id="Path_319" data-name="Path 319" d="M34.086,135H23.643a.606.606,0,0,0,0,1.213H34.086a2.7,2.7,0,0,1,2.7,2.7v19.257a2.7,2.7,0,0,1-2.7,2.7H3.914a2.7,2.7,0,0,1-2.7-2.7V138.914a2.7,2.7,0,0,1,2.7-2.7H15.362a.606.606,0,0,0,0-1.213H3.914A3.918,3.918,0,0,0,0,138.914v19.257a3.918,3.918,0,0,0,3.914,3.914H34.086A3.918,3.918,0,0,0,38,158.171V138.914A3.918,3.918,0,0,0,34.086,135Z" transform="translate(0 -124.085)" fill="#19191d"/>
  <path id="Path_320" data-name="Path 320" d="M175.266,0h-24.66A.606.606,0,0,0,150,.606V9.1a.606.606,0,0,0,.606.606h4.447v4.245a.606.606,0,0,0,1.035.429L160.762,9.7h14.5a.606.606,0,0,0,.606-.606V.606A.606.606,0,0,0,175.266,0Zm-.606,8.489H160.511a.607.607,0,0,0-.429.178l-3.816,3.816V9.1a.606.606,0,0,0-.606-.606h-4.447V1.213H174.66Z" transform="translate(-137.872)" fill="#19191d"/>
</svg>
