<svg xmlns="http://www.w3.org/2000/svg" width="38" height="38" viewBox="0 0 38 38">
  <g id="customer" transform="translate(0 0.024)">
    <path id="Path_321" data-name="Path 321" d="M35.625,30.746H2.375a2.373,2.373,0,1,1,0-4.746h33.25a2.373,2.373,0,1,1,0,4.746Zm-33.25-3.56a1.187,1.187,0,1,0,0,2.373h33.25a1.187,1.187,0,1,0,0-2.373Z" transform="translate(0 4.856)" fill="#19191d"/>
    <path id="Path_322" data-name="Path 322" d="M34.66,37.976a.561.561,0,0,1-.594-.593V35.6H3.188v1.78a.561.561,0,0,1-.594.593A.561.561,0,0,1,2,37.382V35.009a.561.561,0,0,1,.594-.593H34.66a.561.561,0,0,1,.594.593v2.373A.561.561,0,0,1,34.66,37.976ZM28.722,10.447h-.356a.561.561,0,0,1-.594-.593.543.543,0,0,1,.475-.593l1.069-2.966a1.558,1.558,0,0,0-.356-1.424,1.693,1.693,0,0,0-1.425-.712.561.561,0,0,1-.594-.593,2.8,2.8,0,0,0-.831-1.9,2.136,2.136,0,0,0-1.9-.475L17.083,2.378a2.64,2.64,0,0,0-1.544.949,2.337,2.337,0,0,0-.356,1.78l1.069,4.034a.543.543,0,0,1,.475.593.561.561,0,0,1-.594.593h-.356a.789.789,0,0,1-.594-.475L14,5.344a3.261,3.261,0,0,1,.594-2.729,3.368,3.368,0,0,1,2.375-1.424L24.09,0a3.563,3.563,0,0,1,2.85.831A3.521,3.521,0,0,1,28.128,3.09a2.816,2.816,0,0,1,1.781,1.068A2.771,2.771,0,0,1,30.5,6.65L29.315,9.972a.606.606,0,0,1-.594.475Z" transform="translate(0.373 0)" fill="#19191d"/>
    <path id="Path_323" data-name="Path 323" d="M27.46,9.54H27.1a1.7,1.7,0,0,1-1.661-1.661V6.1A10.11,10.11,0,0,1,17.849,7.76l-1.068-.237A.53.53,0,0,0,16.425,8a1.7,1.7,0,0,1-1.661,1.661h-.356a.593.593,0,1,1,0-1.187h.356A.51.51,0,0,0,15.238,8,1.7,1.7,0,0,1,16.9,6.336l1.187.237A8.566,8.566,0,0,0,24.85,5.031a1.4,1.4,0,0,1,1.187-.119,1.21,1.21,0,0,1,.593.949V7.879a.51.51,0,0,0,.475.475h.356a.593.593,0,1,1,0,1.187Zm6.052,21.6H8.593a.593.593,0,0,1,0-1.187H32.918v-3.8A4.348,4.348,0,0,0,29.952,22l-5.577-1.9a.563.563,0,1,1,.356-1.068l5.577,1.9a5.525,5.525,0,0,1,3.8,5.34v4.39A.543.543,0,0,1,33.512,31.136Z" transform="translate(1.522 0.907)" fill="#19191d"/>
    <path id="Path_324" data-name="Path 324" d="M32.952,30.732H27.019a.561.561,0,0,1-.593-.593v-.949a6.553,6.553,0,0,1,5.814-6.526.906.906,0,0,1,.593.237,6.092,6.092,0,0,1,.831,2.848v4.39A.752.752,0,0,1,32.952,30.732Zm-5.34-1.187h4.746v-3.8a3.757,3.757,0,0,0-.475-1.9,5.47,5.47,0,0,0-4.39,5.34v.356ZM26.426,14.832H22.273a.593.593,0,0,1,0-1.187h4.153A2.38,2.38,0,0,0,28.8,11.272V9.255a.593.593,0,0,1,1.187,0v2.017a3.65,3.65,0,0,1-3.56,3.56ZM13.966,11.746H12.78A1.825,1.825,0,0,1,11,9.966V8.78A1.825,1.825,0,0,1,12.78,7h.593a.593.593,0,1,1,0,1.187H12.78a.561.561,0,0,0-.593.593V9.966a.561.561,0,0,0,.593.593h.593V9.373a.593.593,0,1,1,1.187,0v1.78A.561.561,0,0,1,13.966,11.746Z" transform="translate(2.082 1.311)" fill="#19191d"/>
    <path id="Path_325" data-name="Path 325" d="M29.885,11.746H28.7a.561.561,0,0,1-.593-.593V9.373a.593.593,0,1,1,1.187,0V10.56h.593a.561.561,0,0,0,.593-.593V8.78a.561.561,0,0,0-.593-.593h-.593a.593.593,0,0,1,0-1.187h.593a1.825,1.825,0,0,1,1.78,1.78V9.966A1.825,1.825,0,0,1,29.885,11.746Zm-8.9,18.986H4.373A2.38,2.38,0,0,1,2,28.359v-1.78a.561.561,0,0,1,.593-.593H22.765a.561.561,0,0,1,.593.593v1.78A2.38,2.38,0,0,1,20.986,30.732Zm-17.8-3.56v1.187a1.121,1.121,0,0,0,1.187,1.187H20.986a1.121,1.121,0,0,0,1.187-1.187V27.172Z" transform="translate(0.373 1.311)" fill="#19191d"/>
    <path id="Path_326" data-name="Path 326" d="M20.392,26.053H2.593A.561.561,0,0,1,2,25.459V13.593A.561.561,0,0,1,2.593,13h17.8a.561.561,0,0,1,.593.593V25.459A.561.561,0,0,1,20.392,26.053ZM3.187,24.866H19.8V14.187H3.187Z" transform="translate(0.373 2.43)" fill="#19191d"/>
    <path id="Path_327" data-name="Path 327" d="M19.375,21.42h-.237s-.949-.475-1.9-1.068a.593.593,0,1,1,.712-.949,10.391,10.391,0,0,0,1.424.831c.949-.475,2.848-1.661,2.848-2.848V14.893a.593.593,0,0,1,1.187,0v2.492c0,2.255-3.441,3.8-3.8,4.034Z" transform="translate(3.189 2.673)" fill="#19191d"/>
    <path id="Path_328" data-name="Path 328" d="M20.12,17.493a10.386,10.386,0,0,1-1.9-.237.788.788,0,0,1-.475-.593V15.12H15.136a.9.9,0,0,1-.475-.237A6.818,6.818,0,0,1,13,10.373V8.593a.593.593,0,1,1,1.187,0v1.78a6.1,6.1,0,0,0,1.187,3.56H18.34a.561.561,0,0,1,.593.593v1.661a4.037,4.037,0,0,0,1.187.119,5.875,5.875,0,0,0,5.933-5.933V8.593a.593.593,0,1,1,1.187,0v1.78A7.14,7.14,0,0,1,20.12,17.493Z" transform="translate(2.445 1.497)" fill="#19191d"/>
    <circle id="Ellipse_15" data-name="Ellipse 15" cx="1.187" cy="1.187" r="1.187" transform="translate(10.688 20.77)" fill="#19191d"/>
  </g>
</svg>
