<svg xmlns="http://www.w3.org/2000/svg" width="24" height="20" viewBox="0 0 24 20">
  <path id="twitter" d="M23.875,2.374a10.538,10.538,0,0,1-2.428,2.588l-.029.021q.015.218.015.656a14.742,14.742,0,0,1-.6,4.155l.026-.1a14.841,14.841,0,0,1-1.783,3.936l.032-.054a15.276,15.276,0,0,1-2.777,3.272l-.019.017a12.307,12.307,0,0,1-3.824,2.253l-.087.027A13.653,13.653,0,0,1,7.606,20H7.4A13.241,13.241,0,0,1-.064,17.7l.051.032a9.851,9.851,0,0,0,1.128.062h.155a9.366,9.366,0,0,0,6-2.171l-.019.015A4.929,4.929,0,0,1,2.68,12.172l-.01-.036a5.83,5.83,0,0,0,.922.078h0a4.918,4.918,0,0,0,1.323-.18l-.036.008a4.81,4.81,0,0,1-2.805-1.733L2.072,10.3A4.936,4.936,0,0,1,.957,7.156c0-.023,0-.047,0-.07V7.027a4.68,4.68,0,0,0,2.2.64h.009A5.025,5.025,0,0,1,1.592,5.893l-.013-.026A5.2,5.2,0,0,1,1.668.89L1.655.913A14.072,14.072,0,0,0,6.041,4.6l.077.037a13.12,13.12,0,0,0,5.6,1.553h.031a5.617,5.617,0,0,1-.12-1.152h0A4.978,4.978,0,0,1,16.528,0,4.82,4.82,0,0,1,20.1,1.586l0,0A9.415,9.415,0,0,0,23.246.345L23.2.37a4.9,4.9,0,0,1-2.13,2.769l-.023.012a9.51,9.51,0,0,0,2.885-.806l-.062.026Z" transform="translate(0.064 0.004)" fill="#19191d"/>
</svg>
